<svg xmlns="http://www.w3.org/2000/svg" xmlns:xlink="http://www.w3.org/1999/xlink" width="500" zoomAndPan="magnify" viewBox="0 0 375 374.999991" height="500" preserveAspectRatio="xMidYMid meet" version="1.0"><defs><clipPath id="f926ed30ae"><path d="M 92.589844 62 L 282.339844 62 L 282.339844 313.0625 L 92.589844 313.0625 Z M 92.589844 62 " clip-rule="nonzero"/></clipPath></defs><path fill="#f8f8ee" d="M 187.5 375 C 83.910156 375 0 290.507812 0 187.5 C 0 84.492188 83.910156 0 187.5 0 C 291.089844 0 375 83.910156 375 187.5 C 375 291.089844 290.507812 375 187.5 375 Z M 187.5 11.574219 C 90.277344 11.574219 11.574219 90.277344 11.574219 187.5 C 11.574219 284.722656 90.277344 363.425781 187.5 363.425781 C 284.722656 363.425781 363.425781 284.722656 363.425781 187.5 C 363.425781 90.277344 284.144531 11.574219 187.5 11.574219 Z M 187.5 11.574219 " fill-opacity="1" fill-rule="nonzero"/><g clip-path="url(#f926ed30ae)"><path fill="#ffffff" d="M 92.628906 184.601562 C 92.628906 171.800781 95.140625 159.378906 100.085938 147.683594 C 104.863281 136.390625 111.699219 126.25 120.410156 117.542969 C 129.121094 108.832031 139.261719 101.996094 150.558594 97.21875 C 162.253906 92.273438 174.671875 89.765625 187.476562 89.765625 C 196.933594 89.765625 206.246094 91.152344 215.195312 93.886719 L 237.707031 64.03125 C 239.105469 62.175781 241.746094 61.804688 243.605469 63.207031 C 245.460938 64.605469 245.832031 67.246094 244.429688 69.101562 L 184.566406 148.492188 C 184.375 148.75 184.15625 148.976562 183.917969 149.179688 C 189.890625 156.050781 190.472656 166.410156 184.773438 173.964844 L 173.578125 188.8125 C 167.035156 197.488281 154.652344 199.226562 145.972656 192.683594 C 137.296875 186.140625 135.558594 173.757812 142.101562 165.082031 C 142.152344 165.011719 142.207031 164.949219 142.265625 164.882812 C 142.308594 164.8125 142.355469 164.742188 142.410156 164.671875 L 153.296875 150.234375 C 158.992188 142.679688 169.113281 140.386719 177.363281 144.234375 C 177.492188 143.953125 177.648438 143.679688 177.84375 143.421875 L 210.105469 100.644531 C 202.757812 98.667969 195.171875 97.667969 187.476562 97.667969 C 139.535156 97.667969 100.535156 136.664062 100.535156 184.601562 C 100.535156 210.972656 112.308594 235.621094 132.835938 252.226562 C 134.535156 253.597656 134.796875 256.085938 133.425781 257.785156 C 132.644531 258.75 131.5 259.25 130.351562 259.25 C 129.476562 259.25 128.597656 258.964844 127.867188 258.371094 C 105.472656 240.257812 92.628906 213.371094 92.628906 184.601562 Z M 179.582031 214.082031 C 181.550781 211.472656 184.421875 209.785156 187.671875 209.332031 C 188.25 209.25 188.828125 209.207031 189.40625 209.207031 C 192.050781 209.207031 194.613281 210.058594 196.753906 211.675781 C 199.367188 213.644531 201.054688 216.515625 201.507812 219.761719 C 201.964844 223.011719 201.132812 226.234375 199.164062 228.847656 C 197.195312 231.457031 194.324219 233.148438 191.074219 233.601562 C 187.828125 234.058594 184.601562 233.222656 181.992188 231.253906 C 179.382812 229.285156 177.691406 226.414062 177.238281 223.167969 C 176.78125 219.921875 177.613281 216.695312 179.582031 214.082031 Z M 270.667969 230.179688 C 278.296875 216.28125 282.320312 200.550781 282.320312 184.601562 C 282.320312 153.132812 266.753906 123.773438 240.679688 106.078125 C 238.871094 104.851562 236.414062 105.324219 235.1875 107.128906 C 233.964844 108.933594 234.433594 111.390625 236.238281 112.617188 C 260.148438 128.839844 274.417969 155.75 274.417969 184.601562 C 274.417969 199.648438 270.511719 214.46875 263.125 227.472656 C 262.691406 228.242188 262.527344 229.128906 262.65625 230 L 271.191406 288.136719 L 221.691406 265.863281 C 220.726562 265.429688 219.636719 265.402344 218.652344 265.78125 C 208.710938 269.597656 198.222656 271.535156 187.476562 271.535156 C 178.027344 271.535156 168.796875 270.042969 159.957031 267.089844 L 181.347656 238.726562 C 185.09375 240.464844 189.347656 240.941406 193.425781 240.054688 C 197.875 239.089844 201.835938 236.554688 204.574219 232.925781 L 230.480469 198.570312 C 231.601562 197.078125 231.304688 194.949219 229.8125 193.824219 C 228.320312 192.699219 226.195312 193 225.070312 194.488281 L 207.925781 217.230469 C 207.1875 213.988281 205.613281 210.992188 203.355469 208.546875 L 217.984375 189.148438 C 219.105469 187.65625 218.808594 185.53125 217.316406 184.40625 C 216.59375 183.859375 215.707031 183.628906 214.808594 183.753906 C 213.914062 183.882812 213.117188 184.347656 212.574219 185.070312 L 197.945312 204.46875 C 194.976562 202.972656 191.660156 202.285156 188.34375 202.46875 L 205.488281 179.726562 C 206.035156 179.007812 206.261719 178.113281 206.136719 177.21875 C 206.011719 176.324219 205.542969 175.53125 204.824219 174.984375 C 204.097656 174.441406 203.210938 174.207031 202.3125 174.335938 C 201.417969 174.460938 200.621094 174.929688 200.078125 175.652344 L 174.171875 210.007812 C 171.433594 213.640625 170.089844 218.140625 170.382812 222.683594 C 170.65625 226.851562 172.28125 230.808594 174.984375 233.929688 L 151.285156 265.363281 C 150.53125 265.785156 149.90625 266.453125 149.554688 267.320312 C 149.476562 267.507812 149.421875 267.703125 149.375 267.898438 L 120.597656 306.0625 C 119.839844 307.066406 119.421875 308.25 119.421875 309.390625 C 119.425781 310.628906 119.929688 311.722656 120.816406 312.390625 C 121.417969 312.84375 122.144531 313.0625 122.898438 313.0625 C 124.335938 313.0625 125.886719 312.277344 126.957031 310.859375 L 154.960938 273.71875 C 165.359375 277.515625 176.277344 279.4375 187.476562 279.4375 C 198.636719 279.4375 209.546875 277.519531 219.929688 273.738281 L 274.523438 298.304688 C 275.042969 298.539062 275.597656 298.652344 276.144531 298.652344 C 276.992188 298.652344 277.828125 298.378906 278.527344 297.855469 C 279.679688 296.984375 280.265625 295.554688 280.054688 294.125 L 270.667969 230.179688 " fill-opacity="1" fill-rule="nonzero" fill="#FFFFFF"/></g></svg>