<?xml version="1.0" standalone="no"?>
<!DOCTYPE svg PUBLIC "-//W3C//DTD SVG 20010904//EN"
 "http://www.w3.org/TR/2001/REC-SVG-20010904/DTD/svg10.dtd">
<svg version="1.0" xmlns="http://www.w3.org/2000/svg"
 width="3508.000000pt" height="2480.000000pt" viewBox="0 0 3508.000000 2480.000000"
 preserveAspectRatio="xMidYMid meet"  >

<g transform="translate(0.000000,2480.000000) scale(0.100000,-0.100000)"
fill="#FFFFFF" stroke="none">
<path d="M12712 17733 c3 -10 214 -991 469 -2181 282 -1313 467 -2155 471
-2145 4 10 109 495 233 1078 124 583 229 1070 232 1083 l5 22 724 0 c398 0
724 -2 724 -5 0 -4 -445 -1970 -465 -2053 -5 -20 5 -15 62 31 295 237 682 395
1074 438 124 14 366 6 494 -15 453 -76 772 -317 924 -697 122 -305 144 -676
65 -1119 -126 -707 -397 -1269 -800 -1660 -332 -322 -722 -509 -1194 -571
-142 -19 -408 -17 -498 4 -327 75 -599 289 -681 534 -12 34 -21 73 -21 85 -1
36 -10 15 -113 -255 l-95 -247 68 -272 c37 -150 82 -334 100 -408 105 -434
319 -899 593 -1290 739 -1054 1908 -1770 3091 -1895 128 -13 593 -15 3826 -15
2470 0 3680 3 3680 10 0 6 -111 538 -246 1183 -136 644 -247 1186 -246 1202 0
27 429 1906 436 1913 2 1 23 -28 47 -65 63 -98 217 -250 323 -318 220 -143
440 -194 745 -174 604 40 1142 333 1534 834 311 398 544 939 617 1430 94 638
-45 1194 -376 1505 -247 232 -622 340 -1044 301 -448 -41 -781 -196 -1137
-527 -57 -53 -103 -92 -103 -88 0 11 90 487 96 507 5 16 -34 17 -720 17 l-724
0 -10 -47 c-6 -27 -192 -893 -414 -1925 l-403 -1878 -586 0 -585 0 8 68 c4 37
28 149 51 249 l44 182 -91 -87 c-360 -344 -706 -507 -1153 -544 -248 -20 -532
15 -728 91 -396 153 -592 487 -555 947 42 513 316 939 768 1196 306 174 662
278 1142 334 93 11 269 17 563 21 l427 5 25 83 c57 186 77 302 73 420 -4 122
-19 165 -79 223 -58 56 -126 76 -269 76 -132 0 -202 -12 -285 -49 -107 -47
-217 -152 -288 -276 -31 -53 -77 -182 -77 -216 l0 -23 -680 0 -681 0 7 38 c12
68 71 237 109 313 159 316 392 511 815 682 359 146 778 216 1290 217 229 0
550 -41 708 -91 18 -6 35 -9 38 -6 6 5 -109 567 -137 666 -249 896 -811 1702
-1604 2296 -624 468 -1268 738 -2020 848 l-150 21 -3724 3 c-3557 3 -3723 3
-3719 -14z m8422 -3760 c-3 -21 -56 -294 -118 -608 l-111 -570 -255 -6 c-346
-8 -492 -37 -677 -134 -331 -174 -540 -508 -652 -1040 -17 -83 -101 -465 -185
-850 l-153 -700 -731 -3 -730 -2 13 57 c99 426 652 2921 674 3043 17 91 51
289 76 440 25 151 48 283 51 293 5 16 49 17 729 17 l725 0 -6 -27 c-49 -264
-123 -687 -121 -689 2 -2 24 32 50 76 203 338 473 562 807 668 165 52 271 68
478 70 l142 2 -6 -37z m5897 -823 c81 -15 170 -63 223 -120 185 -198 202 -596
50 -1208 -161 -652 -446 -1003 -855 -1053 -237 -28 -420 54 -509 231 -97 191
-106 515 -25 926 97 501 271 865 504 1060 80 67 222 138 316 158 83 17 221 20
296 6z"/>
<path d="M2506 12837 c-324 -1513 -592 -2758 -594 -2765 -3 -10 416 -12 2089
-10 l2094 3 111 490 c62 270 115 502 118 518 l5 27 -1329 0 c-1071 0 -1330 2
-1330 13 0 7 52 271 115 587 63 316 115 576 115 577 0 2 553 3 1229 3 1162 0
1230 1 1235 18 3 9 55 244 116 522 60 278 112 515 115 528 l5 22 -1231 0
c-981 0 -1230 3 -1227 13 2 6 56 263 119 569 l114 558 1350 2 1349 3 113 525
c61 289 112 531 113 538 0 9 -427 12 -2102 12 l-2103 0 -589 -2753z"/>
<path d="M9796 13999 c-293 -28 -607 -131 -832 -274 -150 -95 -319 -252 -427
-397 -32 -44 -57 -68 -69 -68 -16 0 -19 5 -15 23 15 59 127 600 127 612 0 13
-95 15 -719 15 l-720 0 -5 -42 c-3 -24 -10 -86 -16 -138 -23 -209 -85 -514
-483 -2385 l-273 -1280 720 -3 c395 -1 721 0 724 2 2 3 111 499 242 1103 131
604 252 1151 269 1217 118 450 354 685 716 712 262 20 428 -86 480 -308 19
-79 19 -262 1 -388 -8 -52 -127 -598 -265 -1212 -138 -615 -251 -1120 -251
-1123 0 -3 325 -5 723 -5 l722 0 252 1098 c138 603 257 1135 263 1182 6 47 27
132 46 190 97 292 273 472 531 542 114 31 315 31 394 -1 107 -41 181 -130 214
-256 18 -70 20 -266 4 -382 -6 -43 -118 -590 -250 -1215 -131 -626 -239 -1142
-239 -1148 0 -7 234 -10 725 -10 l725 0 5 23 c25 107 541 2577 556 2657 25
142 25 344 0 465 -86 418 -405 699 -881 779 -622 104 -1324 -153 -1735 -634
l-69 -81 -12 63 c-44 235 -204 432 -448 551 -217 107 -447 143 -730 116z"/>
<path d="M31365 14000 c-455 -30 -776 -103 -1119 -256 -423 -189 -685 -470
-815 -877 -17 -53 -31 -99 -31 -102 0 -3 310 -5 690 -5 l690 0 6 28 c25 114
91 251 160 332 137 160 279 219 498 207 121 -7 159 -17 223 -60 34 -23 56 -48
76 -88 53 -104 48 -238 -22 -534 l-28 -120 -404 -6 c-409 -6 -539 -15 -775
-49 -520 -76 -943 -247 -1222 -494 -258 -228 -424 -528 -483 -877 -18 -104
-20 -150 -16 -279 7 -200 38 -317 116 -450 173 -290 521 -441 1021 -442 501
-1 892 164 1254 528 95 95 136 129 136 111 0 -2 -20 -88 -45 -193 -25 -104
-48 -217 -52 -251 l-6 -63 691 0 692 0 4 23 c12 54 37 239 61 447 14 124 30
249 35 278 5 30 111 517 235 1084 171 782 227 1054 232 1127 31 514 -378 866
-1122 966 -142 19 -497 27 -680 15z m169 -2232 c-81 -380 -192 -625 -354 -788
-132 -132 -250 -189 -436 -211 -166 -20 -290 18 -383 116 -144 152 -161 363
-46 561 42 72 148 173 244 232 240 147 452 197 847 201 l152 1 -24 -112z"/>
<path d="M15625 13145 c-269 -50 -466 -223 -626 -550 -76 -156 -126 -295 -193
-537 -54 -194 -76 -366 -76 -583 0 -403 108 -625 334 -690 83 -24 274 -16 366
15 224 76 398 246 538 525 112 225 222 632 267 995 21 164 16 411 -10 504 -36
128 -115 235 -208 283 -100 50 -249 65 -392 38z"/>
<path d="M22879 11869 c-220 -13 -359 -46 -524 -125 -234 -112 -369 -248 -424
-428 -63 -205 32 -428 219 -515 45 -20 74 -26 157 -29 386 -15 651 205 808
673 36 106 105 382 105 418 0 15 -11 17 -107 16 -60 -1 -165 -5 -234 -10z"/>
</g>
</svg>
